<?xml version="1.0" encoding="UTF-8"?><svg xmlns="http://www.w3.org/2000/svg" viewBox="0 0 234 50"><path d="M31.11,28.14v21.86h-8.26V28.14c0-4-3.34-7.34-7.26-7.34s-7.26,3.35-7.26,7.34v21.86H0V28.14c0-8.64,7.03-15.63,15.58-15.63s15.52,7.05,15.52,15.63Z"/><path d="M72.4,31.26c0,1.47-.12,2.88-.47,4.23h-27.65c1.58,3.64,5.27,6.17,9.49,6.17,2.58,0,4.98-1,6.8-2.59l6.97,4.76c-3.4,3.76-8.32,6.17-13.77,6.17-10.37,0-18.69-8.4-18.69-18.74s8.32-18.74,18.69-18.74,18.63,8.4,18.63,18.74Zm-9.08-4.11c-1.58-3.7-5.27-6.35-9.55-6.35s-8.03,2.64-9.61,6.35h19.16Z"/><path d="M113.35,31.26c0,10.34-8.32,18.74-18.63,18.74s-18.69-8.4-18.69-18.74,8.32-18.74,18.69-18.74,18.63,8.4,18.63,18.74Zm-8.26,0c0-5.76-4.69-10.46-10.37-10.46s-10.43,4.7-10.43,10.46,4.69,10.4,10.43,10.4,10.37-4.7,10.37-10.4Z"/><path d="M125.41,31.26c0,5.7,4.69,10.4,10.37,10.4,2.64,0,5.04-1,6.85-2.59l6.97,4.76c-3.4,3.76-8.32,6.17-13.83,6.17-10.31,0-18.69-8.4-18.69-18.74s8.38-18.74,18.69-18.74c5.51,0,10.43,2.35,13.83,6.11l-6.97,4.76c-1.82-1.59-4.22-2.59-6.85-2.59-5.68,0-10.37,4.7-10.37,10.46Z"/><path d="M184.23,28.14v21.86h-8.26V28.14c0-4-3.34-7.29-7.26-7.29s-7.26,3.29-7.26,7.29v21.86h-8.32V0h8.32V14.34c2.17-1.18,4.63-1.82,7.26-1.82,8.49,0,15.52,7.05,15.52,15.63Z"/><path d="M197.46,4.58c0,2.53-2.05,4.58-4.57,4.58s-4.57-2.06-4.57-4.58,2.05-4.58,4.57-4.58,4.57,2.06,4.57,4.58Zm-8.73,7.93h8.32V50h-8.32V12.51Z"/><path d="M209.12,31.26c0,5.7,4.69,10.4,10.37,10.4,2.64,0,5.04-1,6.85-2.59l6.97,4.76c-3.4,3.76-8.32,6.17-13.83,6.17-10.31,0-18.69-8.4-18.69-18.74s8.38-18.74,18.69-18.74c5.51,0,10.43,2.35,13.83,6.11l-6.97,4.76c-1.82-1.59-4.22-2.59-6.85-2.59-5.68,0-10.37,4.7-10.37,10.46Z"/></svg>
